HIERARCHY
ROOT SpineBase
{
  OFFSET 0.000000 0.000000 0.000000
  CHANNELS 6 Xposition Yposition Zposition Zrotation Xrotation Yrotation
  JOINT SpineMid
  {
    OFFSET 0.000000 31.232990 0.000000
    CHANNELS 3 Zrotation Xrotation Yrotation
    JOINT SpineShoulder
    {
      OFFSET 0.171410 23.257364 -0.747057
      CHANNELS 3 Zrotation Xrotation Yrotation
      JOINT Neck
      {
        OFFSET 0.107451 7.701136 -0.588632
        CHANNELS 3 Zrotation Xrotation Yrotation
        JOINT Head
        {
          OFFSET 5.180813 13.915686 -0.136348
          CHANNELS 3 Zrotation Xrotation Yrotation
          End Site
          {
            OFFSET 0 0 0
          }
        }
      }
      JOINT ShoulderLeft
      {
        OFFSET -12.404228 -2.724952 -11.464065
        CHANNELS 3 Zrotation Xrotation Yrotation
        JOINT ElbowLeft
        {
          OFFSET -6.469214 -25.404026 -3.971114
          CHANNELS 3 Zrotation Xrotation Yrotation
          JOINT WristLeft
          {
            OFFSET 1.646132 -25.922036 -5.317603
            CHANNELS 3 Zrotation Xrotation Yrotation
            JOINT HandLeft
            {
              OFFSET 1.234045 -5.775419 -0.541237
              CHANNELS 3 Zrotation Xrotation Yrotation
              JOINT HandTipLeft
              {
                OFFSET 0.829304 -6.825170 0.301117
                CHANNELS 3 Zrotation Xrotation Yrotation
                End Site
                {
                  OFFSET 0 0 0
                }
              }
              JOINT ThumbLeft
              {
                OFFSET -2.807290 -0.969151 -3.529324
                CHANNELS 3 Zrotation Xrotation Yrotation
                End Site
                {
                  OFFSET 0 0 0
                }
              }
            }
          }
        }
      }
      JOINT ShoulderRight
      {
        OFFSET 13.954284 -6.028709 9.471032
        CHANNELS 3 Zrotation Xrotation Yrotation
        JOINT ElbowRight
        {
          OFFSET 1.788501 -29.103995 4.366707
          CHANNELS 3 Zrotation Xrotation Yrotation
          JOINT WristRight
          {
            OFFSET 0.133896 -24.488523 -6.047490
            CHANNELS 3 Zrotation Xrotation Yrotation
            JOINT HandRight
            {
              OFFSET -0.951738 -6.603623 -1.347749
              CHANNELS 3 Zrotation Xrotation Yrotation
              JOINT HandTipRight
              {
                OFFSET -0.102564 -4.528863 -1.585076
                CHANNELS 3 Zrotation Xrotation Yrotation
                End Site
                {
                  OFFSET 0 0 0
                }
              }
              JOINT ThumbRight
              {
                OFFSET 3.386437 0.366040 -1.099759
                CHANNELS 3 Zrotation Xrotation Yrotation
                End Site
                {
                  OFFSET 0 0 0
                }
              }
            }
          }
        }
      }
    }
  }
  JOINT HipLeft
  {
    OFFSET -5.113138 1.654271 -7.859041
    CHANNELS 3 Zrotation Xrotation Yrotation
    JOINT KneeLeft
    {
      OFFSET -9.579201 -32.907691 -3.182662
      CHANNELS 3 Zrotation Xrotation Yrotation
      JOINT AnkleLeft
      {
        OFFSET -7.655422 -40.314453 5.070196
        CHANNELS 3 Zrotation Xrotation Yrotation
        JOINT FootLeft
        {
          OFFSET 1.787313 -8.724908 -5.701358
          CHANNELS 3 Zrotation Xrotation Yrotation
          End Site
          {
            OFFSET 0 0 0
          }
        }
      }
    }
  }
  JOINT HipRight
  {
    OFFSET 6.333794 -0.035591 0.453467
    CHANNELS 3 Zrotation Xrotation Yrotation
    JOINT KneeRight
    {
      OFFSET -6.191311 -36.779789 3.546130
      CHANNELS 3 Zrotation Xrotation Yrotation
      JOINT AnkleRight
      {
        OFFSET -6.413523 -35.853282 7.133366
        CHANNELS 3 Zrotation Xrotation Yrotation
        JOINT FootRight
        {
          OFFSET 2.039425 -8.330700 -6.261534
          CHANNELS 3 Zrotation Xrotation Yrotation
          End Site
          {
            OFFSET 0 0 0
          }
        }
      }
    }
  }
}
MOTION
Frames: 5
Frame Time: 0.033333
-56.046093 82.293397 351.259440 -0.000000 0.000000 -35.986319 -0.000000 0.000000 35.986319 -0.000000 0.000000 0.000000 -0.000000 0.000000 0.000000 0.000000 0.000000 0.000000 -0.000000 0.000000 0.000000 -0.000000 0.000000 0.000000 -0.000000 0.000000 0.000000 -0.000000 0.000000 0.000000 0.000000 0.000000 0.000000 0.000000 0.000000 0.000000 -0.000000 0.000000 0.000000 -0.000000 0.000000 0.000000 -0.000000 0.000000 0.000000 -0.000000 0.000000 0.000000 0.000000 0.000000 0.000000 0.000000 0.000000 0.000000 -0.000000 0.000000 35.986319 -0.000000 0.000000 0.000000 -0.000000 0.000000 0.000000 0.000000 0.000000 0.000000 -0.000000 0.000000 35.986319 -0.000000 0.000000 0.000000 -0.000000 0.000000 0.000000 0.000000 0.000000 0.000000
-56.011659 82.294448 351.152704 0.005166 0.144745 -35.701825 0.080273 -0.120557 35.701902 -0.000000 0.000000 0.000000 -0.000000 0.000000 0.000000 0.000000 0.000000 0.000000 -0.000000 0.000000 0.000000 -0.000000 0.000000 0.000000 -0.000000 0.000000 0.000000 -0.309209 1.487084 0.171226 0.000000 0.000000 0.000000 0.000000 0.000000 0.000000 -0.000000 0.000000 0.000000 -0.000000 0.000000 0.000000 0.101870 1.865229 -0.290368 -0.299194 -8.404676 0.504898 0.000000 0.000000 0.000000 0.000000 0.000000 0.000000 0.080273 -0.120557 35.701902 -0.000000 0.000000 0.000000 3.884035 5.303911 -1.573063 0.000000 0.000000 0.000000 0.080273 -0.120557 35.701902 -0.000000 0.000000 0.000000 -0.000000 0.000000 0.000000 0.000000 0.000000 0.000000
-55.972973 82.294236 351.058741 0.012368 0.267857 -35.464028 0.145335 -0.225339 35.464285 -0.000000 0.000000 0.000000 -0.000000 0.000000 0.000000 0.000000 0.000000 0.000000 -0.000000 0.000000 0.000000 -0.000000 0.000000 0.000000 -0.000000 0.000000 0.000000 -0.418921 2.810770 0.333900 0.000000 0.000000 0.000000 0.000000 0.000000 0.000000 -0.000000 0.000000 0.000000 -0.163825 1.136404 0.048178 0.304950 2.473814 -0.592118 -0.395082 -14.638020 0.895669 0.000000 0.000000 0.000000 0.000000 0.000000 0.000000 0.145335 -0.225339 35.464285 -0.000000 0.000000 0.000000 7.662402 10.148235 -3.368850 0.000000 0.000000 0.000000 0.145335 -0.225339 35.464285 -0.000000 0.000000 0.000000 0.208159 1.251531 0.146400 0.000000 0.000000 0.000000
-55.930033 82.292760 350.977549 0.021604 0.369354 -35.273330 0.195657 -0.314018 35.273796 -0.000000 0.000000 0.000000 -0.000000 0.000000 0.000000 0.000000 0.000000 0.000000 -0.000000 0.000000 0.000000 0.498279 0.899799 -0.048896 -0.497572 -0.900190 0.041074 -0.337240 3.990447 0.482844 0.000000 0.000000 0.000000 0.000000 0.000000 0.000000 -0.000000 0.000000 0.000000 -0.215647 1.527311 0.064269 0.316054 3.637191 -0.818157 -0.335937 -19.037052 1.196152 0.000000 0.000000 0.000000 0.000000 0.000000 0.000000 0.195657 -0.314018 35.273796 -0.000000 0.000000 0.000000 11.270647 14.445802 -5.296826 0.000000 0.000000 0.000000 0.195657 -0.314018 35.273796 -0.000000 0.000000 0.000000 0.155997 1.514922 0.249016 0.000000 0.000000 0.000000
-55.882841 82.290022 350.909129 0.032872 0.449256 -35.130025 0.231636 -0.386338 35.130677 -0.000000 0.000000 0.000000 -0.000000 0.000000 0.000000 0.000000 0.000000 0.000000 -0.000000 0.000000 0.000000 0.616898 1.052961 -0.065206 -0.615803 -1.053602 0.053875 -0.068333 5.042287 0.614293 0.000000 0.000000 0.000000 0.000000 0.000000 0.000000 -0.000000 0.000000 0.000000 -0.247291 1.800333 0.074511 0.213713 4.656772 -0.979123 -0.153103 -21.832548 1.409725 0.000000 0.000000 0.000000 0.000000 0.000000 0.000000 0.231636 -0.386338 35.130677 -0.000000 0.000000 0.000000 14.657072 18.174091 -7.270499 0.000000 0.000000 0.000000 0.231636 -0.386338 35.130677 -0.000000 0.000000 0.000000 0.000897 1.540847 0.372779 0.000000 0.000000 0.000000
